<svg width="18" height="18" viewBox="0 0 18 18" fill="none" xmlns="http://www.w3.org/2000/svg">
<path d="M9.00002 17.3333C7.84724 17.3333 6.76391 17.1144 5.75002 16.6767C4.73613 16.2394 3.85419 15.6458 3.10419 14.8958C2.35419 14.1458 1.76058 13.2639 1.32335 12.25C0.885576 11.2361 0.666687 10.1528 0.666687 9C0.666687 7.84723 0.885576 6.76389 1.32335 5.75C1.76058 4.73612 2.35419 3.85417 3.10419 3.10417C3.85419 2.35417 4.73613 1.76028 5.75002 1.3225C6.76391 0.885283 7.84724 0.666672 9.00002 0.666672C10.1528 0.666672 11.2361 0.885283 12.25 1.3225C13.2639 1.76028 14.1459 2.35417 14.8959 3.10417C15.6459 3.85417 16.2395 4.73612 16.6767 5.75C17.1145 6.76389 17.3334 7.84723 17.3334 9C17.3334 10.1528 17.1145 11.2361 16.6767 12.25C16.2395 13.2639 15.6459 14.1458 14.8959 14.8958C14.1459 15.6458 13.2639 16.2394 12.25 16.6767C11.2361 17.1144 10.1528 17.3333 9.00002 17.3333ZM9.00002 15.6667C10.8611 15.6667 12.4375 15.0208 13.7292 13.7292C15.0209 12.4375 15.6667 10.8611 15.6667 9C15.6667 7.13889 15.0209 5.5625 13.7292 4.27084C12.4375 2.97917 10.8611 2.33334 9.00002 2.33334C7.13891 2.33334 5.56252 2.97917 4.27085 4.27084C2.97919 5.5625 2.33335 7.13889 2.33335 9C2.33335 10.8611 2.97919 12.4375 4.27085 13.7292C5.56252 15.0208 7.13891 15.6667 9.00002 15.6667Z" fill="#1C1B1F"/>
</svg>
