<svg width="11" height="12" viewBox="0 0 11 12" fill="none" xmlns="http://www.w3.org/2000/svg">
<path d="M10.4334 1.03533C10.3152 0.705333 10.0649 0.5 9.7803 0.5H1.21979C0.935176 0.5 0.684846 0.705333 0.566287 1.03533C0.4488 1.36258 0.48951 1.73658 0.672347 2.01067L0.672704 2.01112L4.07162 7.08671V11.0417C4.07162 11.2108 4.14412 11.3662 4.26018 11.4459C4.31303 11.4821 4.37088 11.5 4.42873 11.5C4.49801 11.5 4.56693 11.4739 4.62692 11.423L6.76955 9.58967C6.86882 9.50442 6.92846 9.36142 6.92846 9.20833V7.08671L10.3277 2.01112C10.5106 1.73658 10.5513 1.36258 10.4334 1.03533Z" fill="black"/>
</svg>

