<svg width="15" height="15" viewBox="0 0 15 15" fill="none" xmlns="http://www.w3.org/2000/svg">
<mask id="mask0_3815_56256" style="mask-type:alpha" maskUnits="userSpaceOnUse" x="0" y="0" width="15" height="15">
<rect width="15" height="15" fill="#D9D9D9"/>
</mask>
<g mask="url(#mask0_3815_56256)">
<path d="M4.37549 13.125C4.03174 13.125 3.73747 13.0026 3.49268 12.7578C3.24788 12.513 3.12549 12.2188 3.12549 11.875V3.75H2.50049V2.5H5.62549V1.875H9.37549V2.5H12.5005V3.75H11.8755V11.875C11.8755 12.2188 11.7531 12.513 11.5083 12.7578C11.2635 13.0026 10.9692 13.125 10.6255 13.125H4.37549ZM10.6255 3.75H4.37549V11.875H10.6255V3.75ZM5.62549 10.625H6.87549V5H5.62549V10.625ZM8.12549 10.625H9.37549V5H8.12549V10.625Z" fill="#6D6D6D"/>
</g>
</svg>
