<svg width="15" height="16" viewBox="0 0 15 16" fill="none" xmlns="http://www.w3.org/2000/svg">
<circle cx="7.5" cy="8" r="7.5" fill="#0D9EF0"/>
<path d="M6.34 11.57C6.17333 11.57 6.04333 11.5233 5.95 11.43C5.86333 11.3367 5.82 11.2067 5.82 11.04V4.98C5.82 4.80667 5.86667 4.67667 5.96 4.59C6.05333 4.49667 6.18333 4.45 6.35 4.45H8.74C9.5 4.45 10.0867 4.64 10.5 5.02C10.9133 5.39333 11.12 5.92 11.12 6.6C11.12 7.28667 10.9133 7.82 10.5 8.2C10.0867 8.57333 9.5 8.76 8.74 8.76H6.86V11.04C6.86 11.2067 6.81667 11.3367 6.73 11.43C6.64333 11.5233 6.51333 11.57 6.34 11.57ZM6.86 7.93H8.59C9.09 7.93 9.46667 7.82 9.72 7.6C9.98 7.37333 10.11 7.04 10.11 6.6C10.11 6.16667 9.98 5.84 9.72 5.62C9.46667 5.39333 9.09 5.28 8.59 5.28H6.86V7.93Z" fill="white"/>
</svg>
