<svg width="20" height="20" viewBox="0 0 20 20" fill="none" xmlns="http://www.w3.org/2000/svg">
<mask id="mask0_3815_56521" style="mask-type:alpha" maskUnits="userSpaceOnUse" x="0" y="0" width="20" height="20">
<rect width="20" height="20" fill="#D9D9D9"/>
</mask>
<g mask="url(#mask0_3815_56521)">
<path d="M10.0002 16.6666C9.54183 16.6666 9.14947 16.5034 8.82308 16.177C8.49669 15.8506 8.3335 15.4583 8.3335 14.9999C8.3335 14.5416 8.49669 14.1492 8.82308 13.8228C9.14947 13.4964 9.54183 13.3333 10.0002 13.3333C10.4585 13.3333 10.8509 13.4964 11.1772 13.8228C11.5036 14.1492 11.6668 14.5416 11.6668 14.9999C11.6668 15.4583 11.5036 15.8506 11.1772 16.177C10.8509 16.5034 10.4585 16.6666 10.0002 16.6666ZM10.0002 11.6666C9.54183 11.6666 9.14947 11.5034 8.82308 11.177C8.49669 10.8506 8.3335 10.4583 8.3335 9.99992C8.3335 9.54158 8.49669 9.14922 8.82308 8.82284C9.14947 8.49645 9.54183 8.33325 10.0002 8.33325C10.4585 8.33325 10.8509 8.49645 11.1772 8.82284C11.5036 9.14922 11.6668 9.54158 11.6668 9.99992C11.6668 10.4583 11.5036 10.8506 11.1772 11.177C10.8509 11.5034 10.4585 11.6666 10.0002 11.6666ZM10.0002 6.66659C9.54183 6.66659 9.14947 6.50339 8.82308 6.177C8.49669 5.85061 8.3335 5.45825 8.3335 4.99992C8.3335 4.54159 8.49669 4.14922 8.82308 3.82284C9.14947 3.49645 9.54183 3.33325 10.0002 3.33325C10.4585 3.33325 10.8509 3.49645 11.1772 3.82284C11.5036 4.14922 11.6668 4.54159 11.6668 4.99992C11.6668 5.45825 11.5036 5.85061 11.1772 6.177C10.8509 6.50339 10.4585 6.66659 10.0002 6.66659Z" fill="#363636"/>
</g>
</svg>
