<svg width="15" height="15" viewBox="0 0 15 15" fill="none" xmlns="http://www.w3.org/2000/svg">
<mask id="mask0_3815_56809" style="mask-type:alpha" maskUnits="userSpaceOnUse" x="0" y="0" width="15" height="15">
<rect width="15" height="15" fill="#D9D9D9"/>
</mask>
<g mask="url(#mask0_3815_56809)">
<path d="M5 8.74902C4.82292 8.74902 4.67448 8.68913 4.55469 8.56934C4.4349 8.44954 4.375 8.30111 4.375 8.12402C4.375 7.94694 4.4349 7.7985 4.55469 7.67871C4.67448 7.55892 4.82292 7.49902 5 7.49902C5.17708 7.49902 5.32552 7.55892 5.44531 7.67871C5.5651 7.7985 5.625 7.94694 5.625 8.12402C5.625 8.30111 5.5651 8.44954 5.44531 8.56934C5.32552 8.68913 5.17708 8.74902 5 8.74902ZM7.5 8.74902C7.32292 8.74902 7.17448 8.68913 7.05469 8.56934C6.9349 8.44954 6.875 8.30111 6.875 8.12402C6.875 7.94694 6.9349 7.7985 7.05469 7.67871C7.17448 7.55892 7.32292 7.49902 7.5 7.49902C7.67708 7.49902 7.82552 7.55892 7.94531 7.67871C8.0651 7.7985 8.125 7.94694 8.125 8.12402C8.125 8.30111 8.0651 8.44954 7.94531 8.56934C7.82552 8.68913 7.67708 8.74902 7.5 8.74902ZM10 8.74902C9.82292 8.74902 9.67448 8.68913 9.55469 8.56934C9.4349 8.44954 9.375 8.30111 9.375 8.12402C9.375 7.94694 9.4349 7.7985 9.55469 7.67871C9.67448 7.55892 9.82292 7.49902 10 7.49902C10.1771 7.49902 10.3255 7.55892 10.4453 7.67871C10.5651 7.7985 10.625 7.94694 10.625 8.12402C10.625 8.30111 10.5651 8.44954 10.4453 8.56934C10.3255 8.68913 10.1771 8.74902 10 8.74902ZM3.125 13.749C2.78125 13.749 2.48698 13.6266 2.24219 13.3818C1.9974 13.137 1.875 12.8428 1.875 12.499V3.74902C1.875 3.40527 1.9974 3.111 2.24219 2.86621C2.48698 2.62142 2.78125 2.49902 3.125 2.49902H3.75V1.24902H5V2.49902H10V1.24902H11.25V2.49902H11.875C12.2188 2.49902 12.513 2.62142 12.7578 2.86621C13.0026 3.111 13.125 3.40527 13.125 3.74902V12.499C13.125 12.8428 13.0026 13.137 12.7578 13.3818C12.513 13.6266 12.2188 13.749 11.875 13.749H3.125ZM3.125 12.499H11.875V6.24902H3.125V12.499ZM3.125 4.99902H11.875V3.74902H3.125V4.99902Z" fill="#F00D69"/>
</g>
</svg>
