<svg width="35" height="35" viewBox="0 0 35 35" fill="none" xmlns="http://www.w3.org/2000/svg">
<circle cx="16.9186" cy="13.7839" r="13.7839" fill="white"/>
<path d="M30.2744 23.9787C32.7652 21.1755 34.1418 17.5501 34.1418 13.7934C34.1418 10.0366 32.7652 6.41123 30.2744 3.60807C30.1847 3.50272 30.075 3.41642 29.9517 3.35424C29.8284 3.29206 29.694 3.25525 29.5563 3.24598C29.4186 3.23671 29.2805 3.25517 29.15 3.30026C29.0195 3.34536 28.8993 3.41618 28.7965 3.50858C28.6937 3.60097 28.6103 3.71307 28.5512 3.83828C28.4921 3.9635 28.4586 4.09931 28.4525 4.23773C28.4465 4.37615 28.468 4.51439 28.5159 4.64433C28.5638 4.77426 28.6371 4.89327 28.7315 4.99437C30.8826 7.41624 32.0714 10.548 32.0714 13.7931C32.0714 17.0383 30.8826 20.17 28.7315 22.5919C28.5484 22.7975 28.4542 23.0676 28.4695 23.343C28.4848 23.6183 28.6084 23.8763 28.8131 24.0601C29.0178 24.244 29.2869 24.3386 29.5611 24.3233C29.8353 24.3079 30.0923 24.1838 30.2753 23.9782L30.2744 23.9787Z" fill="#0D9EF0"/>
<path d="M3.86749 3.58991C1.37662 6.39306 -6.26964e-07 10.0185 -4.62329e-07 13.7752C-2.97694e-07 17.532 1.37662 21.1574 3.86749 23.9605C3.95712 24.0659 4.06681 24.1522 4.19012 24.2144C4.31343 24.2765 4.44787 24.3134 4.58555 24.3226C4.72323 24.3319 4.86137 24.3134 4.99184 24.2683C5.12232 24.2232 5.2425 24.1524 5.34533 24.06C5.44816 23.9676 5.53156 23.8555 5.59063 23.7303C5.6497 23.6051 5.68325 23.4693 5.6893 23.3309C5.69536 23.1925 5.67381 23.0542 5.6259 22.9243C5.578 22.7943 5.50471 22.6753 5.41035 22.5742C3.25921 20.1524 2.07043 17.0206 2.07043 13.7755C2.07043 10.5303 3.25921 7.39857 5.41035 4.9767C5.59343 4.77113 5.68769 4.50096 5.67239 4.22561C5.65708 3.95026 5.53347 3.6923 5.32874 3.50846C5.12402 3.32463 4.85495 3.22998 4.58072 3.24535C4.3065 3.26072 4.04959 3.38484 3.86651 3.5904L3.86749 3.58991Z" fill="#0D9EF0"/>
<path d="M17.0657 32.596C17.3799 32.596 17.6346 32.342 17.6346 32.0286C17.6346 31.7152 17.3799 31.4612 17.0657 31.4612C16.7515 31.4612 16.4968 31.7152 16.4968 32.0286C16.4968 32.342 16.7515 32.596 17.0657 32.596Z" fill="#0D9EF0"/>
<path d="M23.1135 25.4348C25.7106 24.0848 27.7785 21.9046 28.9862 19.2435C30.1939 16.5823 30.4716 13.5939 29.7748 10.7567C29.078 7.91943 27.447 5.39738 25.143 3.59422C22.8389 1.79105 19.9949 0.811035 17.0663 0.811035C14.1377 0.811035 11.2937 1.79105 8.98965 3.59422C6.68558 5.39738 5.05463 7.91943 4.35785 10.7567C3.66108 13.5939 3.93876 16.5823 5.14647 19.2435C6.35418 21.9046 8.42207 24.0848 11.0192 25.4348C3.70339 25.9795 0 27.5286 0 30.0423C0 34.0142 9.27839 34.8653 17.0663 34.8653C24.8542 34.8653 34.1326 34.0312 34.1326 30.0423C34.1326 27.5286 30.4292 25.9795 23.1135 25.4348ZM7.3954 13.8708C7.3954 11.963 7.96259 10.098 9.02525 8.51173C10.0879 6.92544 11.5983 5.68907 13.3654 4.95898C15.1325 4.22889 17.077 4.03786 18.953 4.41006C20.829 4.78226 22.5522 5.70096 23.9047 7.04999C25.2572 8.39903 26.1782 10.1178 26.5514 11.989C26.9246 13.8601 26.733 15.7996 26.0011 17.5622C25.2691 19.3248 24.0296 20.8314 22.4392 21.8913C20.8488 22.9512 18.979 23.5169 17.0663 23.5169C14.5014 23.5169 12.0416 22.5007 10.2279 20.6917C8.4143 18.8827 7.3954 16.4291 7.3954 13.8708ZM17.0663 33.7305C7.24181 33.7305 1.13775 32.3176 1.13775 30.0423C1.13775 28.1811 5.2166 26.8931 12.3276 26.4845L13.4312 27.6194C9.85864 27.7896 5.11989 28.374 5.11989 30.0423C5.11989 31.9318 11.1614 32.4254 14.7908 32.5559C14.9417 32.5559 15.0864 32.4961 15.1931 32.3897C15.2997 32.2833 15.3597 32.139 15.3597 31.9885C15.3597 31.838 15.2997 31.6937 15.1931 31.5873C15.0864 31.4809 14.9417 31.4211 14.7908 31.4211C9.34096 31.2282 6.82653 30.4451 6.30885 30.0423C6.80946 29.6451 9.26132 28.9074 14.5064 28.6748L15.9286 30.099C16.2347 30.3683 16.6296 30.5158 17.0379 30.5132C17.4573 30.5081 17.861 30.3531 18.1756 30.0763L19.5751 28.6748C24.8599 28.8847 27.3061 29.6451 27.8124 30.0423C27.3061 30.4451 24.7803 31.2282 19.3304 31.4211C19.1796 31.4211 19.0349 31.4809 18.9282 31.5873C18.8215 31.6937 18.7616 31.838 18.7616 31.9885C18.7616 32.139 18.8215 32.2833 18.9282 32.3897C19.0349 32.4961 19.1796 32.5559 19.3304 32.5559C22.9314 32.4254 29.0014 31.9318 29.0014 30.0423C29.0014 28.374 24.2626 27.7726 20.6901 27.591L21.7937 26.4562C28.916 26.9215 32.9949 28.1811 32.9949 30.0423C32.9949 32.3176 26.8908 33.7305 17.0663 33.7305Z" fill="#0D9EF0"/>
<circle cx="17" cy="14" r="9" fill="#0D9EF0"/>
<path d="M15.34 18.27C15.1733 18.27 15.0433 18.2233 14.95 18.13C14.8633 18.0366 14.82 17.9066 14.82 17.74V11.68C14.82 11.5066 14.8667 11.3766 14.96 11.29C15.0533 11.1966 15.1833 11.15 15.35 11.15H17.74C18.5 11.15 19.0867 11.34 19.5 11.72C19.9133 12.0933 20.12 12.62 20.12 13.3C20.12 13.9866 19.9133 14.52 19.5 14.9C19.0867 15.2733 18.5 15.46 17.74 15.46H15.86V17.74C15.86 17.9066 15.8167 18.0366 15.73 18.13C15.6433 18.2233 15.5133 18.27 15.34 18.27ZM15.86 14.63H17.59C18.09 14.63 18.4667 14.52 18.72 14.3C18.98 14.0733 19.11 13.74 19.11 13.3C19.11 12.8666 18.98 12.54 18.72 12.32C18.4667 12.0933 18.09 11.98 17.59 11.98H15.86V14.63Z" fill="white"/>
</svg>
