<svg width="15" height="15" viewBox="0 0 15 15" fill="none" xmlns="http://www.w3.org/2000/svg">
<mask id="mask0_3815_56836" style="mask-type:alpha" maskUnits="userSpaceOnUse" x="0" y="0" width="15" height="15">
<rect width="15" height="15" fill="#D9D9D9"/>
</mask>
<g mask="url(#mask0_3815_56836)">
<path d="M7.5 9.375C8.02083 9.375 8.46354 9.19271 8.82812 8.82812C9.19271 8.46354 9.375 8.02083 9.375 7.5C9.375 6.97917 9.19271 6.53646 8.82812 6.17188C8.46354 5.80729 8.02083 5.625 7.5 5.625C6.97917 5.625 6.53646 5.80729 6.17188 6.17188C5.80729 6.53646 5.625 6.97917 5.625 7.5C5.625 8.02083 5.80729 8.46354 6.17188 8.82812C6.53646 9.19271 6.97917 9.375 7.5 9.375ZM7.5 13.75C6.63542 13.75 5.82292 13.5859 5.0625 13.2578C4.30208 12.9297 3.64062 12.4844 3.07812 11.9219C2.51562 11.3594 2.07031 10.6979 1.74219 9.9375C1.41406 9.17708 1.25 8.36458 1.25 7.5C1.25 6.63542 1.41406 5.82292 1.74219 5.0625C2.07031 4.30208 2.51562 3.64062 3.07812 3.07812C3.64062 2.51562 4.30208 2.07031 5.0625 1.74219C5.82292 1.41406 6.63542 1.25 7.5 1.25C8.36458 1.25 9.17708 1.41406 9.9375 1.74219C10.6979 2.07031 11.3594 2.51562 11.9219 3.07812C12.4844 3.64062 12.9297 4.30208 13.2578 5.0625C13.5859 5.82292 13.75 6.63542 13.75 7.5C13.75 8.36458 13.5859 9.17708 13.2578 9.9375C12.9297 10.6979 12.4844 11.3594 11.9219 11.9219C11.3594 12.4844 10.6979 12.9297 9.9375 13.2578C9.17708 13.5859 8.36458 13.75 7.5 13.75Z" fill="#FF4D00"/>
</g>
</svg>
