<svg width="14" height="12" viewBox="0 0 14 12" fill="none" xmlns="http://www.w3.org/2000/svg">
<path d="M4.75 11.25V9.75H13.75V11.25H4.75ZM4.75 6.75V5.25H13.75V6.75H4.75ZM4.75 2.25V0.75H13.75V2.25H4.75ZM1.75 12C1.3375 12 0.984375 11.8531 0.690625 11.5594C0.396875 11.2656 0.25 10.9125 0.25 10.5C0.25 10.0875 0.396875 9.73438 0.690625 9.44063C0.984375 9.14688 1.3375 9 1.75 9C2.1625 9 2.51562 9.14688 2.80938 9.44063C3.10313 9.73438 3.25 10.0875 3.25 10.5C3.25 10.9125 3.10313 11.2656 2.80938 11.5594C2.51562 11.8531 2.1625 12 1.75 12ZM1.75 7.5C1.3375 7.5 0.984375 7.35313 0.690625 7.05938C0.396875 6.76563 0.25 6.4125 0.25 6C0.25 5.5875 0.396875 5.23438 0.690625 4.94063C0.984375 4.64687 1.3375 4.5 1.75 4.5C2.1625 4.5 2.51562 4.64687 2.80938 4.94063C3.10313 5.23438 3.25 5.5875 3.25 6C3.25 6.4125 3.10313 6.76563 2.80938 7.05938C2.51562 7.35313 2.1625 7.5 1.75 7.5ZM1.75 3C1.3375 3 0.984375 2.85313 0.690625 2.55938C0.396875 2.26562 0.25 1.9125 0.25 1.5C0.25 1.0875 0.396875 0.734375 0.690625 0.440625C0.984375 0.146875 1.3375 0 1.75 0C2.1625 0 2.51562 0.146875 2.80938 0.440625C3.10313 0.734375 3.25 1.0875 3.25 1.5C3.25 1.9125 3.10313 2.26562 2.80938 2.55938C2.51562 2.85313 2.1625 3 1.75 3Z" fill="#363636"/>
</svg>
