<svg width="15" height="16" viewBox="0 0 15 16" fill="none" xmlns="http://www.w3.org/2000/svg">
<circle cx="7.5" cy="8" r="7.5" fill="#57D08C"/>
<path d="M11.3037 6.44286L10.6852 4.64804C10.4484 3.96036 9.80977 3.5 9.09258 3.5H5.90742C5.19023 3.5 4.55215 3.96036 4.31484 4.64804L3.69609 6.44286C3.28828 6.61429 3 7.02321 3 7.5V10.9286C3 11.2446 3.25137 11.5 3.5625 11.5H4.125C4.43613 11.5 4.6875 11.2446 4.6875 10.9286V10.0714H10.3125V10.9286C10.3125 11.2446 10.5644 11.5 10.875 11.5H11.4375C11.7481 11.5 12 11.2446 12 10.9286V7.5C12 7.02321 11.7124 6.61429 11.3037 6.44286ZM10.0822 6.35714H4.91777L5.37656 5.025C5.45566 4.79643 5.66836 4.64286 5.90742 4.64286H9.09258C9.33164 4.64286 9.54434 4.79643 9.62344 5.025L10.0822 6.35714ZM10.3125 7.5C10.6231 7.5 10.875 7.75536 10.875 8.07143C10.875 8.3875 10.6231 8.64286 10.3125 8.64286C10.0014 8.64286 9.75 8.3875 9.75 8.07143C9.75 7.75536 10.0014 7.5 10.3125 7.5ZM4.6875 8.64286C4.37637 8.64286 4.125 8.3875 4.125 8.07143C4.125 7.75536 4.37637 7.5 4.6875 7.5C4.99863 7.5 5.25 7.75536 5.25 8.07143C5.25 8.3875 4.99863 8.64286 4.6875 8.64286Z" fill="white"/>
</svg>