<svg width="14" height="14" viewBox="0 0 14 14" fill="none" xmlns="http://www.w3.org/2000/svg">
<path d="M12.3594 13.1406L10.9375 11.7187C10.4271 12.052 9.88281 12.3072 9.30469 12.4843C8.72656 12.6614 8.125 12.7499 7.5 12.7499C6.63542 12.7499 5.82292 12.5859 5.0625 12.2578C4.30208 11.9296 3.64062 11.4843 3.07812 10.9218C2.51562 10.3593 2.07031 9.69786 1.74219 8.93744C1.41406 8.17702 1.25 7.36452 1.25 6.49994C1.25 5.87494 1.33854 5.27338 1.51563 4.69525C1.69271 4.11713 1.94792 3.57286 2.28125 3.06244L0.859375 1.64056L1.75 0.749939L13.25 12.2499L12.3594 13.1406ZM7.5 11.4999C7.94792 11.4999 8.38281 11.4426 8.80469 11.3281C9.22656 11.2135 9.63542 11.0416 10.0312 10.8124L3.1875 3.96869C2.95833 4.36452 2.78646 4.77338 2.67188 5.19525C2.55729 5.61713 2.5 6.05202 2.5 6.49994C2.5 7.88536 2.98698 9.06504 3.96094 10.039C4.9349 11.013 6.11458 11.4999 7.5 11.4999ZM12.7188 9.93744L11.8125 9.03119C12.0417 8.63536 12.2135 8.2265 12.3281 7.80463C12.4427 7.38275 12.5 6.94786 12.5 6.49994C12.5 5.11452 12.013 3.93483 11.0391 2.96088C10.0651 1.98692 8.88542 1.49994 7.5 1.49994C7.05208 1.49994 6.61719 1.55723 6.19531 1.67181C5.77344 1.7864 5.36458 1.95827 4.96875 2.18744L4.0625 1.28119C4.57292 0.947856 5.11719 0.692647 5.69531 0.515564C6.27344 0.338481 6.875 0.249939 7.5 0.249939C8.36458 0.249939 9.17708 0.414001 9.9375 0.742126C10.6979 1.07025 11.3594 1.51556 11.9219 2.07806C12.4844 2.64056 12.9297 3.30202 13.2578 4.06244C13.5859 4.82286 13.75 5.63536 13.75 6.49994C13.75 7.12494 13.6615 7.7265 13.4844 8.30463C13.3073 8.88275 13.0521 9.42702 12.7188 9.93744Z" fill="#A0A0A0"/>
</svg>
