<svg xmlns="http://www.w3.org/2000/svg" width="16" height="16" viewBox="0 0 16 16" fill="none">
<circle cx="8" cy="8" r="7.5" fill="#A9A9A9"/>
<path d="M11.8037 7.075L11.1852 5.50453C10.9484 4.90281 10.3098 4.5 9.59258 4.5H6.40742C5.69023 4.5 5.05215 4.90281 4.81484 5.50453L4.19609 7.075C3.78828 7.225 3.5 7.58281 3.5 8V11C3.5 11.2766 3.75137 11.5 4.0625 11.5H4.625C4.93613 11.5 5.1875 11.2766 5.1875 11V10.25H10.8125V11C10.8125 11.2766 11.0644 11.5 11.375 11.5H11.9375C12.2481 11.5 12.5 11.2766 12.5 11V8C12.5 7.58281 12.2124 7.225 11.8037 7.075ZM10.5822 7H5.41777L5.87656 5.83438C5.95566 5.63438 6.16836 5.5 6.40742 5.5H9.59258C9.83164 5.5 10.0443 5.63438 10.1234 5.83438L10.5822 7ZM10.8125 8C11.1231 8 11.375 8.22344 11.375 8.5C11.375 8.77656 11.1231 9 10.8125 9C10.5014 9 10.25 8.77656 10.25 8.5C10.25 8.22344 10.5014 8 10.8125 8ZM5.1875 9C4.87637 9 4.625 8.77656 4.625 8.5C4.625 8.22344 4.87637 8 5.1875 8C5.49863 8 5.75 8.22344 5.75 8.5C5.75 8.77656 5.49863 9 5.1875 9Z" fill="white"/>
<circle cx="11" cy="5" r="2.35" fill="#A9A9A9" stroke="white" stroke-width="0.3"/>
<mask id="path-4-inside-1_3008_2848" fill="white">
<path fill-rule="evenodd" clip-rule="evenodd" d="M9.83825 3.82573C9.88831 3.77037 9.97077 3.76915 10.0224 3.823L11.0809 4.92598L12.1395 6.02905C12.1911 6.08289 12.1924 6.17142 12.1424 6.22677C12.0923 6.28212 12.0099 6.28335 11.9582 6.2295L10.9405 5.16901C10.7689 5.18609 10.6172 5.27438 10.5106 5.40617C10.4634 5.46439 10.3812 5.47048 10.3268 5.41977C10.2725 5.36904 10.2666 5.28072 10.3137 5.22249C10.4199 5.0914 10.5583 4.99079 10.716 4.9351L10.5109 4.72133C10.3755 4.78828 10.2541 4.88222 10.1526 4.99672C10.1031 5.05261 10.0206 5.05471 9.96845 5.00142C9.91629 4.94813 9.91415 4.85962 9.96369 4.80375C10.0651 4.68939 10.1828 4.59173 10.313 4.51512L10.1186 4.31252C10.0541 4.35481 9.99255 4.40162 9.93419 4.45252C9.87841 4.50117 9.79636 4.49198 9.75093 4.43201C9.70549 4.37204 9.71387 4.28398 9.76965 4.23534C9.81983 4.19157 9.87209 4.15043 9.92625 4.1121L9.84119 4.02345C9.78951 3.9696 9.7882 3.88108 9.83825 3.82573ZM10.9758 4.04758C10.8936 4.0488 10.8128 4.05629 10.734 4.06958C10.663 4.08157 10.5962 4.02945 10.5849 3.95317C10.5736 3.87688 10.622 3.80532 10.6931 3.79333C10.784 3.77798 10.877 3.76937 10.9717 3.76796C11.4278 3.7612 11.8503 3.92299 12.187 4.19949C12.2442 4.24646 12.2552 4.33423 12.2116 4.39552C12.1679 4.45682 12.0862 4.46843 12.029 4.42146C11.7372 4.1818 11.3714 4.04172 10.9758 4.04758ZM10.9826 4.46009C10.9885 4.38315 11.0515 4.3261 11.1232 4.33267C11.4674 4.3642 11.7777 4.5266 12.0099 4.7734C12.0611 4.82778 12.0616 4.91632 12.011 4.97113C11.9605 5.02595 11.878 5.02629 11.8268 4.97189C11.6365 4.76964 11.3828 4.63706 11.1016 4.6113C11.0299 4.60473 10.9766 4.53703 10.9826 4.46009ZM11.0007 5.7253C10.9288 5.72637 10.8714 5.78982 10.8725 5.86704C10.8737 5.94426 10.9329 6.00599 11.0048 6.00492C11.0768 6.00385 11.1342 5.94039 11.133 5.86318C11.1319 5.78596 11.0726 5.72423 11.0007 5.7253ZM10.612 5.8709C10.6086 5.63925 10.7807 5.44888 10.9965 5.44568C11.2123 5.44248 11.3901 5.62766 11.3935 5.85932C11.3969 6.09097 11.2248 6.28134 11.009 6.28454C10.7932 6.28774 10.6155 6.10255 10.612 5.8709Z"/>
</mask>
<path fill-rule="evenodd" clip-rule="evenodd" d="M9.83825 3.82573C9.88831 3.77037 9.97077 3.76915 10.0224 3.823L11.0809 4.92598L12.1395 6.02905C12.1911 6.08289 12.1924 6.17142 12.1424 6.22677C12.0923 6.28212 12.0099 6.28335 11.9582 6.2295L10.9405 5.16901C10.7689 5.18609 10.6172 5.27438 10.5106 5.40617C10.4634 5.46439 10.3812 5.47048 10.3268 5.41977C10.2725 5.36904 10.2666 5.28072 10.3137 5.22249C10.4199 5.0914 10.5583 4.99079 10.716 4.9351L10.5109 4.72133C10.3755 4.78828 10.2541 4.88222 10.1526 4.99672C10.1031 5.05261 10.0206 5.05471 9.96845 5.00142C9.91629 4.94813 9.91415 4.85962 9.96369 4.80375C10.0651 4.68939 10.1828 4.59173 10.313 4.51512L10.1186 4.31252C10.0541 4.35481 9.99255 4.40162 9.93419 4.45252C9.87841 4.50117 9.79636 4.49198 9.75093 4.43201C9.70549 4.37204 9.71387 4.28398 9.76965 4.23534C9.81983 4.19157 9.87209 4.15043 9.92625 4.1121L9.84119 4.02345C9.78951 3.9696 9.7882 3.88108 9.83825 3.82573ZM10.9758 4.04758C10.8936 4.0488 10.8128 4.05629 10.734 4.06958C10.663 4.08157 10.5962 4.02945 10.5849 3.95317C10.5736 3.87688 10.622 3.80532 10.6931 3.79333C10.784 3.77798 10.877 3.76937 10.9717 3.76796C11.4278 3.7612 11.8503 3.92299 12.187 4.19949C12.2442 4.24646 12.2552 4.33423 12.2116 4.39552C12.1679 4.45682 12.0862 4.46843 12.029 4.42146C11.7372 4.1818 11.3714 4.04172 10.9758 4.04758ZM10.9826 4.46009C10.9885 4.38315 11.0515 4.3261 11.1232 4.33267C11.4674 4.3642 11.7777 4.5266 12.0099 4.7734C12.0611 4.82778 12.0616 4.91632 12.011 4.97113C11.9605 5.02595 11.878 5.02629 11.8268 4.97189C11.6365 4.76964 11.3828 4.63706 11.1016 4.6113C11.0299 4.60473 10.9766 4.53703 10.9826 4.46009ZM11.0007 5.7253C10.9288 5.72637 10.8714 5.78982 10.8725 5.86704C10.8737 5.94426 10.9329 6.00599 11.0048 6.00492C11.0768 6.00385 11.1342 5.94039 11.133 5.86318C11.1319 5.78596 11.0726 5.72423 11.0007 5.7253ZM10.612 5.8709C10.6086 5.63925 10.7807 5.44888 10.9965 5.44568C11.2123 5.44248 11.3901 5.62766 11.3935 5.85932C11.3969 6.09097 11.2248 6.28134 11.009 6.28454C10.7932 6.28774 10.6155 6.10255 10.612 5.8709Z" fill="white"/>
<path d="M9.83825 3.82573L9.09653 3.15502L9.09652 3.15504L9.83825 3.82573ZM10.0224 3.823L10.744 3.13059L10.7439 3.13059L10.0224 3.823ZM11.0809 4.92598L11.8024 4.23359L11.8024 4.23358L11.0809 4.92598ZM12.1395 6.02905L11.4179 6.72145L11.4179 6.72145L12.1395 6.02905ZM11.9582 6.2295L12.6797 5.53711L12.6797 5.53711L11.9582 6.2295ZM10.9405 5.16901L11.662 4.47661L11.3254 4.12578L10.8415 4.17392L10.9405 5.16901ZM10.5106 5.40617L11.2878 6.03532L11.2879 6.0353L10.5106 5.40617ZM10.3268 5.41977L9.64449 6.15082L9.64459 6.15091L10.3268 5.41977ZM10.3137 5.22249L11.091 5.85166L11.091 5.85165L10.3137 5.22249ZM10.716 4.9351L11.0489 5.87807L12.5115 5.36176L11.4376 4.24269L10.716 4.9351ZM10.5109 4.72133L11.2324 4.02892L10.7248 3.49996L10.0676 3.82494L10.5109 4.72133ZM10.1526 4.99672L9.40428 4.33338L9.40426 4.33341L10.1526 4.99672ZM9.96845 5.00142L9.25386 5.70096L9.25387 5.70097L9.96845 5.00142ZM9.96369 4.80375L10.7119 5.46715L10.712 5.46704L9.96369 4.80375ZM10.313 4.51512L10.82 5.37706L11.9105 4.73559L11.0345 3.82273L10.313 4.51512ZM10.1186 4.31252L10.8401 3.62012L10.2647 3.02051L9.56991 3.47648L10.1186 4.31252ZM9.93419 4.45252L9.27689 3.69889L9.27689 3.69889L9.93419 4.45252ZM9.76965 4.23534L10.4269 4.98898L10.4269 4.98897L9.76965 4.23534ZM9.92625 4.1121L10.5039 4.92838L11.4518 4.25757L10.6478 3.4197L9.92625 4.1121ZM9.84119 4.02345L9.11966 4.71584L9.11967 4.71585L9.84119 4.02345ZM10.734 4.06958L10.9005 5.05564L10.9005 5.05564L10.734 4.06958ZM10.5849 3.95317L11.5741 3.80641L11.5741 3.80639L10.5849 3.95317ZM10.6931 3.79333L10.5267 2.80727L10.5266 2.80727L10.6931 3.79333ZM12.187 4.19949L12.8218 3.42676L12.8217 3.42669L12.187 4.19949ZM12.2116 4.39552L13.0262 4.97554L13.0262 4.97543L12.2116 4.39552ZM12.029 4.42146L11.3943 5.19424L11.3943 5.19426L12.029 4.42146ZM10.9826 4.46009L11.9796 4.53747L11.9796 4.53747L10.9826 4.46009ZM11.1232 4.33267L11.032 5.3285L11.032 5.3285L11.1232 4.33267ZM12.0099 4.7734L11.2816 5.4586L11.2817 5.45877L12.0099 4.7734ZM11.8268 4.97189L11.0985 5.6571L11.0985 5.65717L11.8268 4.97189ZM11.1016 4.6113L11.1928 3.61547L11.1928 3.61547L11.1016 4.6113ZM10.58 4.49644C10.2409 4.87139 9.65096 4.88014 9.30094 4.5154L10.7439 3.13059C10.2906 2.65817 9.5357 2.66936 9.09653 3.15502L10.58 4.49644ZM9.30093 4.5154L10.3594 5.61838L11.8024 4.23358L10.744 3.13059L9.30093 4.5154ZM10.3594 5.61838L11.4179 6.72145L12.861 5.33666L11.8024 4.23359L10.3594 5.61838ZM11.4179 6.72145C11.1062 6.39663 11.0987 5.89 11.4007 5.55607L12.8841 6.89747C13.2862 6.45285 13.276 5.76916 12.861 5.33666L11.4179 6.72145ZM11.4007 5.55607C11.7397 5.1811 12.3297 5.17236 12.6797 5.53711L11.2367 6.9219C11.6901 7.39433 12.445 7.38314 12.8841 6.89747L11.4007 5.55607ZM12.6797 5.53711L11.662 4.47661L10.219 5.86141L11.2367 6.9219L12.6797 5.53711ZM10.8415 4.17392C10.3823 4.21961 9.99383 4.4551 9.73326 4.77703L11.2879 6.0353C11.2406 6.09366 11.1555 6.15256 11.0395 6.1641L10.8415 4.17392ZM9.73328 4.77701C10.0459 4.39073 10.6335 4.33819 11.009 4.68863L9.64459 6.15091C10.1288 6.60277 10.8809 6.53806 11.2878 6.03532L9.73328 4.77701ZM11.0091 4.68872C11.3433 5.00062 11.3701 5.50691 11.091 5.85166L9.53648 4.59333C9.16315 5.05454 9.20162 5.73747 9.64449 6.15082L11.0091 4.68872ZM11.091 5.85165C11.0875 5.85597 11.0752 5.86879 11.0489 5.87807L10.3832 3.99213C10.0414 4.11279 9.75219 4.32683 9.53647 4.59334L11.091 5.85165ZM11.4376 4.24269L11.2324 4.02892L9.78939 5.41373L9.99454 5.62751L11.4376 4.24269ZM10.0676 3.82494C9.81194 3.95138 9.58805 4.12607 9.40428 4.33338L10.9009 5.66006C10.9201 5.63838 10.9391 5.62518 10.9542 5.61771L10.0676 3.82494ZM9.40426 4.33341C9.73855 3.95627 10.3283 3.93954 10.683 4.30188L9.25387 5.70097C9.71291 6.16988 10.4676 6.14895 10.9009 5.66003L9.40426 4.33341ZM10.683 4.30189C10.9988 4.62446 11.0099 5.13111 10.7119 5.46715L9.21543 4.14034C8.81842 4.58813 8.83374 5.2718 9.25386 5.70096L10.683 4.30189ZM10.712 5.46704C10.746 5.42872 10.7829 5.3989 10.82 5.37706L9.806 3.65318C9.58266 3.78456 9.38409 3.95005 9.21533 4.14045L10.712 5.46704ZM11.0345 3.82273L10.8401 3.62012L9.39707 5.00491L9.5915 5.20752L11.0345 3.82273ZM9.56991 3.47648C9.46689 3.5441 9.36906 3.6185 9.27689 3.69889L10.5915 5.20616C10.616 5.18473 10.6414 5.16553 10.6673 5.14855L9.56991 3.47648ZM9.27689 3.69889C9.67073 3.3554 10.2541 3.44013 10.548 3.82815L8.95384 5.03587C9.33866 5.54383 10.0861 5.64694 10.5915 5.20615L9.27689 3.69889ZM10.548 3.82815C10.8114 4.17585 10.7778 4.68297 10.4269 4.98898L9.11236 3.4817C8.64994 3.885 8.59955 4.56822 8.95384 5.03587L10.548 3.82815ZM10.4269 4.98897C10.4519 4.96719 10.4776 4.94698 10.5039 4.92838L9.3486 3.29581C9.26656 3.35387 9.18774 3.41596 9.11236 3.4817L10.4269 4.98897ZM10.6478 3.4197L10.5627 3.33105L9.11967 4.71585L9.20474 4.80449L10.6478 3.4197ZM10.5627 3.33106C10.8744 3.65588 10.8819 4.1625 10.58 4.49642L9.09652 3.15504C8.69448 3.59966 8.70462 4.28333 9.11966 4.71584L10.5627 3.33106ZM10.961 3.04769C10.8277 3.04967 10.6963 3.06181 10.5676 3.08353L10.9005 5.05564C10.9294 5.05076 10.9594 5.04794 10.9906 5.04747L10.961 3.04769ZM10.5676 3.08353C11.1129 2.99152 11.5131 3.3951 11.5741 3.80641L9.59575 4.09993C9.67941 4.6638 10.2132 5.17163 10.9005 5.05564L10.5676 3.08353ZM11.5741 3.80639C11.6334 4.20617 11.3857 4.69058 10.8595 4.77938L10.5266 2.80727C9.85837 2.92006 9.51379 3.54759 9.59575 4.09994L11.5741 3.80639ZM10.8595 4.77939C10.9006 4.77245 10.9429 4.7685 10.9865 4.76785L10.9568 2.76807C10.8112 2.77023 10.6675 2.78351 10.5267 2.80727L10.8595 4.77939ZM10.9865 4.76785C11.1905 4.76483 11.386 4.83569 11.5524 4.97229L12.8217 3.42669C12.3146 3.01029 11.6652 2.75757 10.9568 2.76807L10.9865 4.76785ZM11.5523 4.97222C11.1926 4.67677 11.1439 4.17098 11.3969 3.81562L13.0262 4.97543C13.3665 4.49747 13.2958 3.81615 12.8218 3.42676L11.5523 4.97222ZM11.397 3.8155C11.6793 3.41903 12.2598 3.31699 12.6636 3.64866L11.3943 5.19426C11.9126 5.61987 12.6566 5.4946 13.0262 4.97554L11.397 3.8155ZM12.6637 3.64867C12.2014 3.26906 11.6087 3.03809 10.961 3.04769L10.9906 5.04747C11.1341 5.04534 11.2729 5.09453 11.3943 5.19424L12.6637 3.64867ZM11.9796 4.53747C11.9477 4.94867 11.5812 5.37881 11.032 5.3285L11.2144 3.33684C10.5218 3.27339 10.0294 3.81763 9.98557 4.38271L11.9796 4.53747ZM11.032 5.3285C11.1147 5.33608 11.2037 5.37584 11.2816 5.4586L12.7383 4.08821C12.3518 3.67736 11.8201 3.39232 11.2144 3.33684L11.032 5.3285ZM11.2817 5.45877C10.9739 5.1317 10.9699 4.62488 11.276 4.29307L12.746 5.6492C13.1533 5.20776 13.1483 4.52387 12.7381 4.08804L11.2817 5.45877ZM11.276 4.29307C11.6198 3.92036 12.2098 3.91967 12.5551 4.28662L11.0985 5.65717C11.5462 6.1329 12.3011 6.13153 12.746 5.6492L11.276 4.29307ZM12.5552 4.28669C12.2105 3.92033 11.7354 3.66517 11.1928 3.61547L11.0103 5.60713C11.0302 5.60895 11.0626 5.61895 11.0985 5.6571L12.5552 4.28669ZM11.1928 3.61547C11.7284 3.66452 12.0109 4.13417 11.9796 4.53747L9.98557 4.38271C9.94232 4.9399 10.3314 5.54494 11.0104 5.60713L11.1928 3.61547ZM10.9859 4.72541C10.2961 4.73564 9.86431 5.32037 9.87263 5.88187L11.8724 5.85221C11.8785 6.25927 11.5614 6.71709 11.0155 6.72519L10.9859 4.72541ZM9.87263 5.88187C9.88096 6.44336 10.3299 7.01504 11.0197 7.00481L10.99 5.00503C11.5359 4.99693 11.8664 5.44515 11.8724 5.85221L9.87263 5.88187ZM11.0197 7.00481C11.7094 6.99458 12.1412 6.40984 12.1329 5.84835L10.1331 5.878C10.1271 5.47095 10.4441 5.01312 10.99 5.00503L11.0197 7.00481ZM12.1329 5.84835C12.1246 5.28686 11.6756 4.71518 10.9859 4.72541L11.0155 6.72519C10.4696 6.73328 10.1392 6.28506 10.1331 5.878L12.1329 5.84835ZM11.6119 5.85608C11.6157 6.1087 11.4134 6.43961 11.0114 6.44557L10.9817 4.44579C10.1481 4.45815 9.60154 5.1698 9.61215 5.88573L11.6119 5.85608ZM11.0114 6.44557C10.6094 6.45153 10.3973 6.12677 10.3936 5.87414L12.3934 5.84449C12.3828 5.12856 11.8153 4.43343 10.9817 4.44579L11.0114 6.44557ZM10.3936 5.87414C10.3899 5.62152 10.5921 5.29061 10.9942 5.28465L11.0238 7.28443C11.8574 7.27207 12.404 6.56042 12.3934 5.84449L10.3936 5.87414ZM10.9942 5.28465C11.3962 5.27869 11.6082 5.60345 11.6119 5.85608L9.61215 5.88573C9.62277 6.60166 10.1902 7.29679 11.0238 7.28443L10.9942 5.28465Z" fill="white" mask="url(#path-4-inside-1_3008_2848)"/>
</svg>