<svg width="16" height="18" viewBox="0 0 16 18" fill="none" xmlns="http://www.w3.org/2000/svg">
	<path d="M8 15C8.43333 15 8.79167 14.8583 9.075 14.575C9.35833 14.2917 9.5 13.9333 9.5 13.5C9.5 13.0667 9.35833 12.7083 9.075 12.425C8.79167 12.1417 8.43333 12 8 12C7.56667 12 7.20833 12.1417 6.925 12.425C6.64167 12.7083 6.5 13.0667 6.5 13.5C6.5 13.9333 6.64167 14.2917 6.925 14.575C7.20833 14.8583 7.56667 15 8 15ZM8 10.5C8.43333 10.5 8.79167 10.3583 9.075 10.075C9.35833 9.79167 9.5 9.43333 9.5 9C9.5 8.56667 9.35833 8.20833 9.075 7.925C8.79167 7.64167 8.43333 7.5 8 7.5C7.56667 7.5 7.20833 7.64167 6.925 7.925C6.64167 8.20833 6.5 8.56667 6.5 9C6.5 9.43333 6.64167 9.79167 6.925 10.075C7.20833 10.3583 7.56667 10.5 8 10.5ZM8 6C8.43333 6 8.79167 5.85833 9.075 5.575C9.35833 5.29167 9.5 4.93333 9.5 4.5C9.5 4.06667 9.35833 3.70833 9.075 3.425C8.79167 3.14167 8.43333 3 8 3C7.56667 3 7.20833 3.14167 6.925 3.425C6.64167 3.70833 6.5 4.06667 6.5 4.5C6.5 4.93333 6.64167 5.29167 6.925 5.575C7.20833 5.85833 7.56667 6 8 6ZM3 12V10.85C2.15 10.6167 1.43767 10.15 0.863 9.45C0.287667 8.75 0 7.93333 0 7H3V5.85C2.15 5.61667 1.43767 5.15 0.863 4.45C0.287667 3.75 0 2.93333 0 2H3C3 1.45 3.196 0.979 3.588 0.587C3.97933 0.195667 4.45 0 5 0H11C11.55 0 12.021 0.195667 12.413 0.587C12.8043 0.979 13 1.45 13 2H16C16 2.93333 15.7127 3.75 15.138 4.45C14.5627 5.15 13.85 5.61667 13 5.85V7H16C16 7.93333 15.7127 8.75 15.138 9.45C14.5627 10.15 13.85 10.6167 13 10.85V12H16C16 12.9333 15.7127 13.75 15.138 14.45C14.5627 15.15 13.85 15.6167 13 15.85V16C13 16.55 12.8043 17.021 12.413 17.413C12.021 17.8043 11.55 18 11 18H5C4.45 18 3.97933 17.8043 3.588 17.413C3.196 17.021 3 16.55 3 16V15.85C2.15 15.6167 1.43767 15.15 0.863 14.45C0.287667 13.75 0 12.9333 0 12H3ZM5 16H11V2H5V16Z" fill="#363636" />
</svg>
