<svg xmlns="http://www.w3.org/2000/svg" width="35" height="35" viewBox="0 0 35 35" fill="none">
<circle cx="16.9186" cy="13.7839" r="13.7839" fill="white"/>
<path d="M30.2744 23.9787C32.7652 21.1755 34.1418 17.5501 34.1418 13.7934C34.1418 10.0366 32.7652 6.41123 30.2744 3.60807C30.1847 3.50272 30.075 3.41642 29.9517 3.35424C29.8284 3.29206 29.694 3.25525 29.5563 3.24598C29.4186 3.23671 29.2805 3.25517 29.15 3.30026C29.0195 3.34536 28.8993 3.41618 28.7965 3.50858C28.6937 3.60097 28.6103 3.71307 28.5512 3.83828C28.4921 3.9635 28.4586 4.09931 28.4525 4.23773C28.4465 4.37615 28.468 4.51439 28.5159 4.64433C28.5638 4.77426 28.6371 4.89327 28.7315 4.99437C30.8826 7.41624 32.0714 10.548 32.0714 13.7931C32.0714 17.0383 30.8826 20.17 28.7315 22.5919C28.5484 22.7975 28.4542 23.0676 28.4695 23.343C28.4848 23.6183 28.6084 23.8763 28.8131 24.0601C29.0178 24.244 29.2869 24.3386 29.5611 24.3233C29.8353 24.3079 30.0923 24.1838 30.2753 23.9782L30.2744 23.9787Z" fill="#A9A9A9"/>
<path d="M3.86749 3.58991C1.37662 6.39306 -6.26964e-07 10.0185 -4.62329e-07 13.7752C-2.97694e-07 17.532 1.37662 21.1574 3.86749 23.9605C3.95712 24.0659 4.06681 24.1522 4.19012 24.2144C4.31343 24.2765 4.44787 24.3134 4.58555 24.3226C4.72323 24.3319 4.86137 24.3134 4.99184 24.2683C5.12232 24.2232 5.2425 24.1524 5.34533 24.06C5.44816 23.9676 5.53156 23.8555 5.59063 23.7303C5.6497 23.6051 5.68325 23.4693 5.6893 23.3309C5.69536 23.1925 5.67381 23.0542 5.6259 22.9243C5.578 22.7943 5.50471 22.6753 5.41035 22.5742C3.25921 20.1524 2.07043 17.0206 2.07043 13.7755C2.07043 10.5303 3.25921 7.39857 5.41035 4.9767C5.59343 4.77113 5.68769 4.50096 5.67239 4.22561C5.65708 3.95026 5.53347 3.6923 5.32875 3.50846C5.12402 3.32463 4.85495 3.22998 4.58072 3.24535C4.3065 3.26072 4.04959 3.38484 3.86651 3.5904L3.86749 3.58991Z" fill="#A9A9A9"/>
<path d="M17.0657 32.596C17.3799 32.596 17.6346 32.342 17.6346 32.0286C17.6346 31.7152 17.3799 31.4612 17.0657 31.4612C16.7515 31.4612 16.4968 31.7152 16.4968 32.0286C16.4968 32.342 16.7515 32.596 17.0657 32.596Z" fill="#A9A9A9"/>
<path d="M23.1135 25.4348C25.7106 24.0848 27.7785 21.9046 28.9862 19.2435C30.1939 16.5823 30.4716 13.5939 29.7748 10.7567C29.078 7.91943 27.447 5.39738 25.143 3.59422C22.8389 1.79105 19.9949 0.811035 17.0663 0.811035C14.1377 0.811035 11.2937 1.79105 8.98965 3.59422C6.68558 5.39738 5.05463 7.91943 4.35785 10.7567C3.66108 13.5939 3.93876 16.5823 5.14647 19.2435C6.35418 21.9046 8.42207 24.0848 11.0192 25.4348C3.70339 25.9795 0 27.5286 0 30.0423C0 34.0142 9.27839 34.8653 17.0663 34.8653C24.8542 34.8653 34.1326 34.0312 34.1326 30.0423C34.1326 27.5286 30.4292 25.9795 23.1135 25.4348ZM7.3954 13.8708C7.3954 11.963 7.96259 10.098 9.02525 8.51173C10.0879 6.92544 11.5983 5.68907 13.3654 4.95898C15.1325 4.22889 17.077 4.03786 18.953 4.41006C20.829 4.78226 22.5522 5.70096 23.9047 7.04999C25.2572 8.39903 26.1782 10.1178 26.5514 11.989C26.9246 13.8601 26.733 15.7996 26.0011 17.5622C25.2691 19.3248 24.0296 20.8314 22.4392 21.8913C20.8488 22.9512 18.979 23.5169 17.0663 23.5169C14.5014 23.5169 12.0416 22.5007 10.2279 20.6917C8.4143 18.8827 7.3954 16.4291 7.3954 13.8708ZM17.0663 33.7305C7.24181 33.7305 1.13775 32.3176 1.13775 30.0423C1.13775 28.1811 5.2166 26.8931 12.3276 26.4845L13.4312 27.6194C9.85864 27.7896 5.11989 28.374 5.11989 30.0423C5.11989 31.9318 11.1614 32.4254 14.7908 32.5559C14.9417 32.5559 15.0864 32.4961 15.1931 32.3897C15.2997 32.2833 15.3597 32.139 15.3597 31.9885C15.3597 31.838 15.2997 31.6937 15.1931 31.5873C15.0864 31.4809 14.9417 31.4211 14.7908 31.4211C9.34096 31.2282 6.82653 30.4451 6.30885 30.0423C6.80946 29.6451 9.26132 28.9074 14.5064 28.6748L15.9286 30.099C16.2347 30.3683 16.6296 30.5158 17.0379 30.5132C17.4573 30.5081 17.861 30.3531 18.1756 30.0763L19.5751 28.6748C24.8599 28.8847 27.3061 29.6451 27.8124 30.0423C27.3061 30.4451 24.7803 31.2282 19.3304 31.4211C19.1796 31.4211 19.0349 31.4809 18.9282 31.5873C18.8215 31.6937 18.7616 31.838 18.7616 31.9885C18.7616 32.139 18.8215 32.2833 18.9282 32.3897C19.0349 32.4961 19.1796 32.5559 19.3304 32.5559C22.9314 32.4254 29.0014 31.9318 29.0014 30.0423C29.0014 28.374 24.2626 27.7726 20.6901 27.591L21.7937 26.4562C28.916 26.9215 32.9949 28.1811 32.9949 30.0423C32.9949 32.3176 26.8908 33.7305 17.0663 33.7305Z" fill="#A9A9A9"/>
<circle cx="17" cy="14" r="9" fill="#A9A9A9"/>
<path d="M21.5646 12.8903L20.8223 11.0057C20.5382 10.2837 19.7719 9.80029 18.9112 9.80029H15.0891C14.2284 9.80029 13.4627 10.2837 13.178 11.0057L12.4355 12.8903C11.9461 13.0703 11.6001 13.4997 11.6001 14.0003V17.6003C11.6001 17.9322 11.9018 18.2003 12.2751 18.2003H12.9501C13.3235 18.2003 13.6251 17.9322 13.6251 17.6003V16.7003H20.3751V17.6003C20.3751 17.9322 20.6774 18.2003 21.0501 18.2003H21.7251C22.0979 18.2003 22.4001 17.9322 22.4001 17.6003V14.0003C22.4001 13.4997 22.0551 13.0703 21.5646 12.8903ZM20.0988 12.8003H13.9015L14.452 11.4015C14.5469 11.1615 14.8022 11.0003 15.0891 11.0003H18.9112C19.1981 11.0003 19.4533 11.1615 19.5483 11.4015L20.0988 12.8003ZM20.3751 14.0003C20.7479 14.0003 21.0501 14.2684 21.0501 14.6003C21.0501 14.9322 20.7479 15.2003 20.3751 15.2003C20.0018 15.2003 19.7001 14.9322 19.7001 14.6003C19.7001 14.2684 20.0018 14.0003 20.3751 14.0003ZM13.6251 15.2003C13.2518 15.2003 12.9501 14.9322 12.9501 14.6003C12.9501 14.2684 13.2518 14.0003 13.6251 14.0003C13.9985 14.0003 14.3001 14.2684 14.3001 14.6003C14.3001 14.9322 13.9985 15.2003 13.6251 15.2003Z" fill="white"/>
<circle cx="20.5999" cy="10.3999" r="2.85" fill="#A9A9A9" stroke="white" stroke-width="0.3"/>
<mask id="path-9-inside-1_3008_2857" fill="white">
<path fill-rule="evenodd" clip-rule="evenodd" d="M19.2058 8.99102C19.2658 8.9246 19.3648 8.92313 19.4268 8.98774L20.697 10.3113L21.9672 11.635C22.0292 11.6996 22.0308 11.8059 21.9707 11.8723C21.9107 11.9387 21.8117 11.9402 21.7497 11.8756L20.5285 10.603C20.3226 10.6234 20.1405 10.7294 20.0125 10.8875C19.956 10.9574 19.8572 10.9647 19.792 10.9039C19.7268 10.843 19.7198 10.737 19.7764 10.6671C19.9037 10.5098 20.0698 10.3891 20.2591 10.3223L20.0129 10.0657C19.8505 10.1461 19.7048 10.2588 19.583 10.3962C19.5235 10.4633 19.4246 10.4658 19.362 10.4019C19.2994 10.3379 19.2968 10.2317 19.3563 10.1646C19.4779 10.0274 19.6192 9.91022 19.7755 9.81829L19.5422 9.57517C19.4648 9.62592 19.3909 9.68209 19.3209 9.74317C19.2539 9.80155 19.1555 9.79053 19.101 9.71856C19.0464 9.64659 19.0565 9.54092 19.1234 9.48255C19.1836 9.43004 19.2464 9.38066 19.3114 9.33466L19.2093 9.22829C19.1473 9.16367 19.1457 9.05744 19.2058 8.99102ZM20.5708 9.25725C20.4721 9.25871 20.3753 9.26769 20.2807 9.28365C20.1955 9.29803 20.1153 9.23549 20.1018 9.14395C20.0882 9.0524 20.1463 8.96653 20.2315 8.95214C20.3407 8.93372 20.4523 8.92339 20.5659 8.9217C21.1133 8.91358 21.6202 9.10773 22.0243 9.43953C22.0929 9.4959 22.1061 9.60122 22.0537 9.67477C22.0014 9.74833 21.9033 9.76226 21.8346 9.7059C21.4845 9.41831 21.0456 9.25021 20.5708 9.25725ZM20.5789 9.75226C20.5861 9.65993 20.6616 9.59147 20.7477 9.59935C21.1607 9.63719 21.5331 9.83207 21.8117 10.1282C21.8732 10.1935 21.8738 10.2997 21.8131 10.3655C21.7524 10.4313 21.6534 10.4317 21.592 10.3664C21.3637 10.1237 21.0592 9.96462 20.7217 9.93371C20.6357 9.92583 20.5718 9.84459 20.5789 9.75226ZM20.6007 11.2705C20.5144 11.2718 20.4455 11.3479 20.4469 11.4406C20.4483 11.5333 20.5193 11.6073 20.6057 11.606C20.692 11.6048 20.7608 11.5286 20.7595 11.436C20.7581 11.3433 20.687 11.2692 20.6007 11.2705ZM20.1343 11.4452C20.1302 11.1672 20.3368 10.9388 20.5957 10.935C20.8547 10.9311 21.0679 11.1533 21.072 11.4313C21.0762 11.7093 20.8696 11.9378 20.6106 11.9416C20.3517 11.9454 20.1384 11.7232 20.1343 11.4452Z"/>
</mask>
<path fill-rule="evenodd" clip-rule="evenodd" d="M19.2058 8.99102C19.2658 8.9246 19.3648 8.92313 19.4268 8.98774L20.697 10.3113L21.9672 11.635C22.0292 11.6996 22.0308 11.8059 21.9707 11.8723C21.9107 11.9387 21.8117 11.9402 21.7497 11.8756L20.5285 10.603C20.3226 10.6234 20.1405 10.7294 20.0125 10.8875C19.956 10.9574 19.8572 10.9647 19.792 10.9039C19.7268 10.843 19.7198 10.737 19.7764 10.6671C19.9037 10.5098 20.0698 10.3891 20.2591 10.3223L20.0129 10.0657C19.8505 10.1461 19.7048 10.2588 19.583 10.3962C19.5235 10.4633 19.4246 10.4658 19.362 10.4019C19.2994 10.3379 19.2968 10.2317 19.3563 10.1646C19.4779 10.0274 19.6192 9.91022 19.7755 9.81829L19.5422 9.57517C19.4648 9.62592 19.3909 9.68209 19.3209 9.74317C19.2539 9.80155 19.1555 9.79053 19.101 9.71856C19.0464 9.64659 19.0565 9.54092 19.1234 9.48255C19.1836 9.43004 19.2464 9.38066 19.3114 9.33466L19.2093 9.22829C19.1473 9.16367 19.1457 9.05744 19.2058 8.99102ZM20.5708 9.25725C20.4721 9.25871 20.3753 9.26769 20.2807 9.28365C20.1955 9.29803 20.1153 9.23549 20.1018 9.14395C20.0882 9.0524 20.1463 8.96653 20.2315 8.95214C20.3407 8.93372 20.4523 8.92339 20.5659 8.9217C21.1133 8.91358 21.6202 9.10773 22.0243 9.43953C22.0929 9.4959 22.1061 9.60122 22.0537 9.67477C22.0014 9.74833 21.9033 9.76226 21.8346 9.7059C21.4845 9.41831 21.0456 9.25021 20.5708 9.25725ZM20.5789 9.75226C20.5861 9.65993 20.6616 9.59147 20.7477 9.59935C21.1607 9.63719 21.5331 9.83207 21.8117 10.1282C21.8732 10.1935 21.8738 10.2997 21.8131 10.3655C21.7524 10.4313 21.6534 10.4317 21.592 10.3664C21.3637 10.1237 21.0592 9.96462 20.7217 9.93371C20.6357 9.92583 20.5718 9.84459 20.5789 9.75226ZM20.6007 11.2705C20.5144 11.2718 20.4455 11.3479 20.4469 11.4406C20.4483 11.5333 20.5193 11.6073 20.6057 11.606C20.692 11.6048 20.7608 11.5286 20.7595 11.436C20.7581 11.3433 20.687 11.2692 20.6007 11.2705ZM20.1343 11.4452C20.1302 11.1672 20.3368 10.9388 20.5957 10.935C20.8547 10.9311 21.0679 11.1533 21.072 11.4313C21.0762 11.7093 20.8696 11.9378 20.6106 11.9416C20.3517 11.9454 20.1384 11.7232 20.1343 11.4452Z" fill="white"/>
<path d="M19.2058 8.99102L18.464 8.32031L18.464 8.32033L19.2058 8.99102ZM19.4268 8.98774L20.1483 8.29534L20.1483 8.29534L19.4268 8.98774ZM20.697 10.3113L21.4185 9.61893L21.4185 9.61893L20.697 10.3113ZM21.9672 11.635L21.2457 12.3274L21.2457 12.3274L21.9672 11.635ZM21.7497 11.8756L22.4712 11.1832L22.4712 11.1832L21.7497 11.8756ZM20.5285 10.603L21.25 9.91056L20.9133 9.55973L20.4295 9.60787L20.5285 10.603ZM20.0125 10.8875L20.7898 11.5167L20.7898 11.5167L20.0125 10.8875ZM19.792 10.9039L19.1097 11.6349L19.1098 11.635L19.792 10.9039ZM19.7764 10.6671L20.5536 11.2963L20.5536 11.2963L19.7764 10.6671ZM20.2591 10.3223L20.592 11.2652L22.0545 10.7489L20.9806 9.62986L20.2591 10.3223ZM20.0129 10.0657L20.7344 9.37333L20.2268 8.84438L19.5697 9.16936L20.0129 10.0657ZM19.583 10.3962L18.8347 9.73287L18.8346 9.7329L19.583 10.3962ZM19.362 10.4019L18.6474 11.1014L18.6474 11.1014L19.362 10.4019ZM19.3563 10.1646L20.1045 10.828L20.1046 10.8279L19.3563 10.1646ZM19.7755 9.81829L20.2825 10.6802L21.373 10.0388L20.497 9.1259L19.7755 9.81829ZM19.5422 9.57517L20.2637 8.88277L19.6883 8.28316L18.9935 8.73913L19.5422 9.57517ZM19.3209 9.74317L18.6636 8.98954L18.6636 8.98954L19.3209 9.74317ZM19.1234 9.48255L19.7807 10.2362L19.7807 10.2362L19.1234 9.48255ZM19.3114 9.33466L19.889 10.1509L20.8369 9.48013L20.0329 8.64226L19.3114 9.33466ZM19.2093 9.22829L18.4878 9.92067L18.4878 9.92068L19.2093 9.22829ZM20.2807 9.28365L20.4471 10.2697L20.4471 10.2697L20.2807 9.28365ZM20.1018 9.14395L21.0909 8.99719L21.0909 8.99717L20.1018 9.14395ZM20.2315 8.95214L20.0651 7.96608L20.0651 7.96609L20.2315 8.95214ZM22.0243 9.43953L22.659 8.66681L22.6589 8.66673L22.0243 9.43953ZM22.0537 9.67477L22.8683 10.2548L22.8684 10.2547L22.0537 9.67477ZM21.8346 9.7059L21.2 10.4787L21.2 10.4787L21.8346 9.7059ZM20.5789 9.75226L21.5759 9.82964L21.5759 9.82964L20.5789 9.75226ZM20.7477 9.59935L20.6564 10.5952L20.6564 10.5952L20.7477 9.59935ZM21.8117 10.1282L21.0834 10.8134L21.0835 10.8136L21.8117 10.1282ZM21.592 10.3664L20.8637 11.0516L20.8637 11.0517L21.592 10.3664ZM20.7217 9.93371L20.813 8.93788L20.813 8.93787L20.7217 9.93371ZM19.9475 9.66173C19.6184 10.0256 19.045 10.0341 18.7053 9.68015L20.1483 8.29534C19.6846 7.81214 18.9132 7.82358 18.464 8.32031L19.9475 9.66173ZM18.7053 9.68014L19.9755 11.0037L21.4185 9.61893L20.1483 8.29534L18.7053 9.68014ZM19.9754 11.0037L21.2457 12.3274L22.6887 10.9426L21.4185 9.61893L19.9754 11.0037ZM21.2457 12.3274C20.9443 12.0134 20.9371 11.5244 21.229 11.2016L22.7125 12.543C23.1245 12.0873 23.1141 11.3859 22.6887 10.9426L21.2457 12.3274ZM21.229 11.2016C21.5581 10.8377 22.1315 10.8292 22.4712 11.1832L21.0282 12.5679C21.4919 13.0512 22.2633 13.0397 22.7125 12.543L21.229 11.2016ZM22.4712 11.1832L21.25 9.91056L19.807 11.2954L21.0282 12.5679L22.4712 11.1832ZM20.4295 9.60787C19.936 9.65698 19.5171 9.91012 19.2352 10.2584L20.7898 11.5167C20.7639 11.5487 20.7092 11.5899 20.6275 11.598L20.4295 9.60787ZM19.2352 10.2584C19.5385 9.88376 20.1096 9.83243 20.4743 10.1727L19.1098 11.635C19.6049 12.097 20.3734 12.0311 20.7898 11.5167L19.2352 10.2584ZM20.4744 10.1728C20.7976 10.4746 20.8233 10.9632 20.5536 11.2963L18.9991 10.038C18.6163 10.5108 18.656 11.2114 19.1097 11.6349L20.4744 10.1728ZM20.5536 11.2963C20.5714 11.2744 20.5867 11.2671 20.592 11.2652L19.9262 9.3793C19.5529 9.51109 19.236 9.74526 18.9991 10.038L20.5536 11.2963ZM20.9806 9.62986L20.7344 9.37333L19.2914 10.7581L19.5376 11.0147L20.9806 9.62986ZM19.5697 9.16936C19.2869 9.30919 19.0387 9.50266 18.8347 9.73287L20.3313 11.0596C20.3708 11.015 20.414 10.983 20.4562 10.9621L19.5697 9.16936ZM18.8346 9.7329C19.159 9.36693 19.7323 9.35063 20.0766 9.70231L18.6474 11.1014C19.1169 11.581 19.888 11.5596 20.3313 11.0595L18.8346 9.7329ZM20.0766 9.70232C20.3819 10.0142 20.3926 10.5032 20.1045 10.828L18.608 9.50123C18.2011 9.9602 18.2169 10.6616 18.6474 11.1014L20.0766 9.70232ZM20.1046 10.8279C20.1589 10.7667 20.2193 10.7174 20.2825 10.6802L19.2685 8.95636C19.0191 9.10305 18.797 9.28808 18.6079 9.50134L20.1046 10.8279ZM20.497 9.1259L20.2637 8.88277L18.8206 10.2676L19.054 10.5107L20.497 9.1259ZM18.9935 8.73913C18.8776 8.81521 18.7674 8.89897 18.6636 8.98954L19.9782 10.4968C20.0144 10.4652 20.0521 10.4366 20.0908 10.4112L18.9935 8.73913ZM18.6636 8.98954C19.0463 8.65577 19.6132 8.73868 19.8981 9.1147L18.3039 10.3224C18.6978 10.8424 19.4616 10.9473 19.9782 10.4968L18.6636 8.98954ZM19.8981 9.1147C20.1524 9.45041 20.1204 9.93991 19.7807 10.2362L18.4661 8.72891C17.9926 9.14194 17.9405 9.84277 18.3039 10.3224L19.8981 9.1147ZM19.7807 10.2362C19.8157 10.2057 19.8519 10.1772 19.889 10.1509L18.7337 8.51838C18.6408 8.5841 18.5516 8.65442 18.4661 8.72892L19.7807 10.2362ZM20.0329 8.64226L19.9308 8.53589L18.4878 9.92068L18.5898 10.0271L20.0329 8.64226ZM19.9308 8.5359C20.2322 8.84995 20.2394 9.33886 19.9475 9.66171L18.464 8.32033C18.052 8.77602 18.0624 9.4774 18.4878 9.92067L19.9308 8.5359ZM20.556 8.25735C20.4063 8.25958 20.2587 8.27322 20.1143 8.29759L20.4471 10.2697C20.4918 10.2622 20.538 10.2578 20.5857 10.2571L20.556 8.25735ZM20.1143 8.29759C20.6453 8.20798 21.0322 8.60114 21.0909 8.99719L19.1126 9.29071C19.1985 9.86984 19.7456 10.3881 20.4471 10.2697L20.1143 8.29759ZM21.0909 8.99717C21.148 9.38169 20.9099 9.85179 20.3979 9.9382L20.0651 7.96609C19.3826 8.08127 19.0284 8.72311 19.1126 9.29072L21.0909 8.99717ZM20.3979 9.9382C20.4572 9.92819 20.5182 9.92252 20.5807 9.92159L20.551 7.92181C20.3864 7.92425 20.2241 7.93925 20.0651 7.96608L20.3979 9.9382ZM20.5807 9.92159C20.8759 9.91721 21.1559 10.0204 21.3896 10.2123L22.6589 8.66673C22.0845 8.19503 21.3506 7.90995 20.551 7.92181L20.5807 9.92159ZM21.3895 10.2123C21.0413 9.92621 20.9948 9.43798 21.239 9.09487L22.8684 10.2547C23.2174 9.76446 23.1445 9.06559 22.659 8.66681L21.3895 10.2123ZM21.2391 9.09476C21.5127 8.71054 22.0769 8.61082 22.4693 8.9331L21.2 10.4787C21.7297 10.9137 22.49 10.7861 22.8683 10.2548L21.2391 9.09476ZM22.4693 8.93311C21.9487 8.50557 21.2829 8.24658 20.556 8.25735L20.5857 10.2571C20.8083 10.2538 21.0202 10.331 21.2 10.4787L22.4693 8.93311ZM21.5759 9.82964C21.5452 10.2254 21.1913 10.6442 20.6564 10.5952L20.8389 8.60352C20.132 8.53875 19.627 9.09441 19.5819 9.67488L21.5759 9.82964ZM20.6564 10.5952C20.8081 10.6091 20.9591 10.6813 21.0834 10.8134L22.5401 9.44303C22.1072 8.98283 21.5134 8.66531 20.8389 8.60352L20.6564 10.5952ZM21.0835 10.8136C20.7859 10.4974 20.7821 10.0083 21.0781 9.68745L22.5481 11.0436C22.9654 10.5912 22.9604 9.88957 22.5399 9.44286L21.0835 10.8136ZM21.0781 9.68745C21.4118 9.3257 21.9853 9.32508 22.3203 9.68115L20.8637 11.0517C21.3216 11.5383 22.093 11.5369 22.5481 11.0436L21.0781 9.68745ZM22.3204 9.68121C21.9377 9.27441 21.4118 8.99273 20.813 8.93788L20.6305 10.9295C20.7066 10.9365 20.7897 10.973 20.8637 11.0516L22.3204 9.68121ZM20.813 8.93787C21.3342 8.98562 21.606 9.44172 21.5759 9.82964L19.5819 9.67488C19.5375 10.2475 19.9372 10.866 20.6305 10.9295L20.813 8.93787ZM20.5859 10.2706C19.8817 10.2811 19.4384 10.8785 19.447 11.4554L21.4468 11.4258C21.4526 11.8174 21.147 12.2625 20.6155 12.2704L20.5859 10.2706ZM19.447 11.4554C19.4555 12.0324 19.9164 12.6164 20.6205 12.6059L20.5908 10.6062C21.1223 10.5983 21.441 11.0342 21.4468 11.4258L19.447 11.4554ZM20.6205 12.6059C21.3246 12.5955 21.7679 11.9981 21.7594 11.4211L19.7596 11.4508C19.7538 11.0592 20.0593 10.614 20.5908 10.6062L20.6205 12.6059ZM21.7594 11.4211C21.7508 10.8442 21.29 10.2602 20.5859 10.2706L20.6155 12.2704C20.084 12.2783 19.7654 11.8424 19.7596 11.4508L21.7594 11.4211ZM21.1342 11.4304C21.1373 11.6367 20.9694 11.9295 20.6105 11.9349L20.5809 9.93507C19.7041 9.94807 19.1231 10.6978 19.1344 11.4601L21.1342 11.4304ZM20.6105 11.9349C20.2517 11.9402 20.0752 11.6524 20.0721 11.4462L22.0719 11.4165C22.0606 10.6542 21.4576 9.92207 20.5809 9.93507L20.6105 11.9349ZM20.0721 11.4462C20.0691 11.2399 20.237 10.947 20.5958 10.9417L20.6255 12.9415C21.5022 12.9285 22.0832 12.1788 22.0719 11.4165L20.0721 11.4462ZM20.5958 10.9417C20.9547 10.9364 21.1311 11.2241 21.1342 11.4304L19.1344 11.4601C19.1457 12.2223 19.7487 12.9545 20.6255 12.9415L20.5958 10.9417Z" fill="white" mask="url(#path-9-inside-1_3008_2857)"/>
</svg>