<svg width="16" height="16" viewBox="0 0 16 16" fill="none" xmlns="http://www.w3.org/2000/svg">
<path d="M8.00012 5C8.79577 5 9.55884 5.31607 10.1214 5.87868C10.6841 6.44129 11.0001 7.20435 11.0001 8C11.0001 8.79565 10.6841 9.55871 10.1214 10.1213C9.55884 10.6839 8.79577 11 8.00012 11C7.20447 11 6.44141 10.6839 5.8788 10.1213C5.31619 9.55871 5.00012 8.79565 5.00012 8C5.00012 7.20435 5.31619 6.44129 5.8788 5.87868C6.44141 5.31607 7.20447 5 8.00012 5ZM8.00012 6.5C7.6023 6.5 7.22077 6.65804 6.93946 6.93934C6.65816 7.22064 6.50012 7.60218 6.50012 8C6.50012 8.39782 6.65816 8.77936 6.93946 9.06066C7.22077 9.34196 7.6023 9.5 8.00012 9.5C8.39795 9.5 8.77948 9.34196 9.06078 9.06066C9.34209 8.77936 9.50012 8.39782 9.50012 8C9.50012 7.60218 9.34209 7.22064 9.06078 6.93934C8.77948 6.65804 8.39795 6.5 8.00012 6.5ZM6.50012 15.5C6.31262 15.5 6.15512 15.365 6.12512 15.185L5.84762 13.1975C5.37512 13.01 4.97012 12.755 4.58012 12.455L2.71262 13.2125C2.54762 13.2725 2.34512 13.2125 2.25512 13.0475L0.755124 10.4525C0.657624 10.2875 0.702624 10.085 0.845124 9.9725L2.42762 8.7275L2.37512 8L2.42762 7.25L0.845124 6.0275C0.702624 5.915 0.657624 5.7125 0.755124 5.5475L2.25512 2.9525C2.34512 2.7875 2.54762 2.72 2.71262 2.7875L4.58012 3.5375C4.97012 3.245 5.37512 2.99 5.84762 2.8025L6.12512 0.815C6.15512 0.635 6.31262 0.5 6.50012 0.5H9.50012C9.68762 0.5 9.84512 0.635 9.87512 0.815L10.1526 2.8025C10.6251 2.99 11.0301 3.245 11.4201 3.5375L13.2876 2.7875C13.4526 2.72 13.6551 2.7875 13.7451 2.9525L15.2451 5.5475C15.3426 5.7125 15.2976 5.915 15.1551 6.0275L13.5726 7.25L13.6251 8L13.5726 8.75L15.1551 9.9725C15.2976 10.085 15.3426 10.2875 15.2451 10.4525L13.7451 13.0475C13.6551 13.2125 13.4526 13.28 13.2876 13.2125L11.4201 12.4625C11.0301 12.755 10.6251 13.01 10.1526 13.1975L9.87512 15.185C9.84512 15.365 9.68762 15.5 9.50012 15.5H6.50012ZM7.43762 2L7.16012 3.9575C6.26012 4.145 5.46512 4.625 4.88762 5.2925L3.08012 4.5125L2.51762 5.4875L4.10012 6.65C3.80012 7.5275 3.80012 8.48 4.10012 9.35L2.51012 10.52L3.07262 11.495L4.89512 10.715C5.47262 11.375 6.26012 11.855 7.15262 12.035L7.43012 14H8.57012L8.84762 12.0425C9.74012 11.855 10.5276 11.375 11.1051 10.715L12.9276 11.495L13.4901 10.52L11.9001 9.3575C12.2001 8.48 12.2001 7.5275 11.9001 6.65L13.4826 5.4875L12.9201 4.5125L11.1126 5.2925C10.5351 4.625 9.74012 4.145 8.84012 3.965L8.56262 2H7.43762Z" fill="#363636"/>
</svg>
