<svg width="12" height="15" viewBox="0 0 12 15" fill="none" xmlns="http://www.w3.org/2000/svg">
<path d="M3.99984 8.16668H5.33317V6.33334H6.6665V8.16668H7.99984V5.00001L5.99984 3.66668L3.99984 5.00001V8.16668ZM5.99984 14.1667C4.21095 12.6445 2.87484 11.2306 1.9915 9.92501C1.10817 8.61945 0.666504 7.41112 0.666504 6.30001C0.666504 4.63334 1.20262 3.30557 2.27484 2.31668C3.34706 1.32779 4.58873 0.833344 5.99984 0.833344C7.41095 0.833344 8.65262 1.32779 9.72484 2.31668C10.7971 3.30557 11.3332 4.63334 11.3332 6.30001C11.3332 7.41112 10.8915 8.61945 10.0082 9.92501C9.12484 11.2306 7.78873 12.6445 5.99984 14.1667Z" fill="#363636"/>
</svg>
