<svg width="171" height="33" viewBox="0 0 171 33" fill="none" xmlns="http://www.w3.org/2000/svg">
<path d="M15.2917 9.83587C15.2716 9.79907 15.2502 9.76355 15.2301 9.72803L15.2716 9.80161L15.2854 9.82445L19.0018 16.3188L15.2917 9.83587Z" fill="#0BB4F1"/>
<path d="M8.66627 17.9021C7.91148 17.8858 7.17392 17.6715 6.52626 17.2802C5.87859 16.8888 5.34317 16.334 4.97276 15.6704C4.60234 15.0068 4.40971 14.2573 4.41385 13.4957C4.41799 12.7342 4.61875 11.9868 4.99636 11.3274C5.37396 10.6679 5.91538 10.1191 6.56726 9.73493C7.21914 9.35079 7.95899 9.14461 8.7139 9.13671C9.46882 9.12881 10.2127 9.31946 10.8724 9.68987C11.532 10.0603 12.0846 10.5977 12.4757 11.2491C11.8468 10.1198 11.5167 8.84619 11.5174 7.55089C11.5172 7.20847 11.5399 6.86641 11.5853 6.52706C9.9097 5.83474 8.04215 5.77855 6.32864 6.36891C4.61514 6.95927 3.17183 8.15615 2.26615 9.73781C1.36047 11.3195 1.0538 13.1787 1.40296 14.971C1.75213 16.7632 2.73345 18.3671 4.16512 19.4854C5.4538 18.4785 7.03262 17.9227 8.66249 17.9021H8.66627Z" fill="#0BB4F1"/>
<path d="M33.8346 19.4854C33.5657 19.6948 33.2834 19.886 32.9895 20.0576C31.8799 20.7053 30.6241 21.0548 29.3423 21.0726C30.1038 21.089 30.8477 21.3071 31.4994 21.705C32.151 22.1028 32.6875 22.6666 33.0551 23.3396C33.4227 24.0126 33.6085 24.7712 33.5938 25.5395C33.5791 26.3078 33.3644 27.0586 32.9713 27.7168C32.5782 28.375 32.0206 28.9174 31.3542 29.2896C30.6878 29.6618 29.9361 29.8508 29.1745 29.8375C28.4128 29.8243 27.6681 29.6093 27.0148 29.2141C26.3615 28.8189 25.8227 28.2575 25.4523 27.586L25.446 27.5733L21.7209 21.0662H19.9086L19.0018 22.6495L22.7119 29.1325C23.3572 30.2974 24.297 31.2689 25.4355 31.9482C26.5741 32.6276 27.8708 32.9904 29.1935 32.9998C30.5163 33.0092 31.8179 32.6649 32.9659 32.0018C34.1138 31.3388 35.0671 30.3807 35.7286 29.2251C36.6334 27.6446 36.94 25.7869 36.5918 23.9959C36.2436 22.2049 35.2641 20.6017 33.8346 19.4829V19.4854Z" fill="#F00D69"/>
<path d="M16.2825 21.0661L12.5662 27.5618L12.5536 27.5859C12.182 28.2571 11.642 28.8179 10.9877 29.2121C10.3334 29.6062 9.58781 29.8199 8.82581 29.8315C8.0638 29.8432 7.31215 29.6525 6.64629 29.2785C5.98043 28.9046 5.42377 28.3605 5.03218 27.701C4.64059 27.0415 4.42784 26.2897 4.41528 25.521C4.40272 24.7523 4.59078 23.9938 4.96061 23.3216C5.33043 22.6494 5.86901 22.0872 6.52229 21.6913C7.17557 21.2954 7.92057 21.0798 8.68255 21.0661C7.39342 21.0524 6.1297 20.7027 5.01397 20.0512C4.72002 19.8795 4.43769 19.6884 4.16883 19.479C3.06757 20.3408 2.22671 21.4957 1.74094 22.8136C1.25518 24.1314 1.1438 25.56 1.41936 26.9382C1.69492 28.3165 2.34646 29.5898 3.30062 30.6147C4.25478 31.6396 5.47365 32.3754 6.81996 32.7393C7.45572 32.9114 8.11108 32.9988 8.76933 32.9994C10.099 32.995 11.4036 32.6343 12.5496 31.9542C13.6956 31.274 14.6419 30.2989 15.2915 29.1286L19.0016 22.6456L18.0948 21.0661H16.2825Z" fill="#5D2CA4"/>
<path d="M8.68254 21.0661H16.2825L17.1893 19.4828L16.9378 19.0388L16.2851 17.897H8.8234C8.77058 17.897 8.71901 17.897 8.66619 17.897C7.03632 17.9176 5.4575 18.4734 4.16882 19.4803C4.43768 19.6897 4.72002 19.8808 5.01397 20.0525C6.12982 20.7036 7.39353 21.0528 8.68254 21.0661Z" fill="#041F9B"/>
<path d="M19.9081 21.0686L19.0014 22.6519L18.0946 21.0686L19.0014 22.6519L19.9081 21.0686Z" fill="#5D2CA4"/>
<path d="M16.9355 19.0415L17.1896 19.4855L16.9355 19.0415Z" fill="#5D2CA4"/>
<path d="M25.5279 11.2491C25.9191 10.5976 26.4718 10.0601 27.1315 9.68969C27.7913 9.31926 28.5353 9.12866 29.2904 9.13666C30.0454 9.14467 30.7853 9.35101 31.4372 9.73534C32.0891 10.1197 32.6305 10.6687 33.0079 11.3284C33.3854 11.9881 33.586 12.7356 33.5898 13.4973C33.5937 14.2589 33.4007 15.0085 33.03 15.672C32.6592 16.3356 32.1235 16.8902 31.4755 17.2812C30.8276 17.6723 30.0898 17.8863 29.3349 17.9021C30.9656 17.9221 32.5454 18.478 33.8347 19.4854C35.2664 18.3671 36.2477 16.7632 36.5969 14.971C36.9461 13.1787 36.6394 11.3195 35.7337 9.73781C34.828 8.15615 33.3847 6.95927 31.6712 6.36891C29.9577 5.77855 28.0902 5.83474 26.4146 6.52706C26.6333 8.15684 26.3207 9.81414 25.5242 11.2491H25.5279Z" fill="#2C55BA"/>
<path d="M19.0018 16.3188L22.7245 9.81303L22.732 9.80161L22.7735 9.72803C22.7534 9.76355 22.732 9.79907 22.7119 9.83587L19.0018 16.3188Z" fill="#2C55BA"/>
<path d="M29.3344 17.9021C29.2824 17.9021 29.2308 17.9021 29.1797 17.9021H21.7205L21.0678 19.0439L20.8163 19.4879L21.7205 21.0662H29.3381C30.62 21.0484 31.8758 20.699 32.9853 20.0512C33.2793 19.8796 33.5616 19.6884 33.8305 19.4791C32.5411 18.4717 30.9613 17.9158 29.3306 17.8958L29.3344 17.9021Z" fill="#29044D"/>
<path d="M21.7207 21.0689L20.814 19.4856L19.9084 21.0689H21.7207Z" fill="#020348"/>
<path d="M16.2831 21.0689H18.0954L17.1899 19.4856L16.2831 21.0689Z" fill="#010A71"/>
<path d="M20.8142 19.4855L21.0683 19.0415L20.8142 19.4855Z" fill="#2C55BA"/>
<path d="M25.4305 11.4239C25.4632 11.3681 25.4959 11.311 25.5274 11.2539C25.501 11.2983 25.4746 11.344 25.4494 11.3897L25.4368 11.4138L21.7205 17.9069L25.4305 11.4239Z" fill="#00D3CF"/>
<path d="M15.23 9.72791C14.8525 9.06128 14.6552 8.30633 14.6578 7.53861C14.6604 6.77089 14.8628 6.01732 15.2449 5.35333C15.6269 4.68934 16.1751 4.13822 16.8347 3.75511C17.4942 3.37201 18.2419 3.17037 19.0029 3.17037C19.764 3.17037 20.5117 3.37201 21.1712 3.75511C21.8308 4.13822 22.379 4.68934 22.761 5.35333C23.143 6.01732 23.3455 6.77089 23.3481 7.53861C23.3507 8.30633 23.1534 9.06128 22.7759 9.72791C23.6094 8.28518 24.8913 7.16009 26.4231 6.52702C26.1777 4.7186 25.2912 3.06106 23.9278 1.8611C22.5643 0.661148 20.8161 0 19.0067 0C17.1973 0 15.4491 0.661148 14.0857 1.8611C12.7222 3.06106 11.8357 4.7186 11.5903 6.52702C13.1221 7.16009 14.4041 8.28518 15.2375 9.72791H15.23Z" fill="#00D3CF"/>
<path d="M16.2829 17.902L12.5602 11.3962L12.5539 11.3848C12.5288 11.3391 12.5024 11.2934 12.476 11.249C12.5074 11.3061 12.5401 11.3632 12.5728 11.419L16.2829 17.902Z" fill="#00D3CF"/>
<path d="M12.4755 11.2491C12.5019 11.2935 12.5283 11.3392 12.5535 11.3849L12.5598 11.3963L16.2824 17.9021H18.0947L19.0015 16.3188L15.2851 9.82441L15.2713 9.80157L15.2298 9.72799C14.3963 8.28526 13.1143 7.16017 11.5826 6.5271C11.5372 6.86645 11.5145 7.2085 11.5146 7.55093C11.5148 8.84645 11.8457 10.1201 12.4755 11.2491Z" fill="#0095C4"/>
<path d="M18.0954 17.9019H16.2831L16.9358 19.0411L16.2831 17.9019H18.0954Z" fill="#00D3CF"/>
<path d="M18.0946 21.0686L19.0014 22.6519L19.9081 21.0686H19.0014H18.0946Z" fill="#000237"/>
<path d="M18.0954 17.9019H16.2831L16.9358 19.0411L17.1899 19.4852L18.0954 17.9019Z" fill="#000234"/>
<path d="M22.7735 9.72799L22.732 9.80157L22.7245 9.81299L19.0018 16.3188L19.9086 17.9021H21.7209L25.4372 11.409L25.4498 11.3849C25.475 11.3392 25.5014 11.2935 25.5278 11.2491C26.3244 9.81418 26.6369 8.15687 26.4182 6.5271C24.8865 7.16017 23.6045 8.28526 22.771 9.72799H22.7735Z" fill="#004697"/>
<path d="M19.9081 17.9022L19.0014 16.3188L18.0946 17.9022H19.0014H19.9081Z" fill="#00328F"/>
<path d="M21.7207 17.9019L21.068 19.0411L21.7207 17.9019H19.9084H21.7207Z" fill="#00D3CF"/>
<path d="M19.9084 17.9019L20.814 19.4852L21.068 19.0411L21.7207 17.9019H19.9084Z" fill="#000129"/>
<path d="M19.9086 17.9019H19.0019H18.0951L17.1896 19.4852L18.0951 21.0685H19.0019H19.9086L20.8141 19.4852L19.9086 17.9019Z" fill="#000126"/>
<path d="M70.9374 27.6H65.4654C65.6148 27.3227 65.7321 27.0453 65.8174 26.768C65.9241 26.4907 65.9881 26.192 66.0094 25.872C66.0521 25.5307 66.0734 25.1467 66.0734 24.72C66.0948 24.2933 66.1054 23.7813 66.1054 23.184C66.1054 22.3947 66.0521 21.712 65.9454 21.136C65.8601 20.5387 65.6681 20.048 65.3694 19.664C65.0921 19.2587 64.6868 18.96 64.1534 18.768C63.6201 18.576 62.9054 18.48 62.0094 18.48H58.3934V27.6H52.8574V4.304H63.9614C65.4974 4.304 66.7348 4.56 67.6734 5.072C68.6121 5.56267 69.3374 6.16 69.8494 6.864C70.3614 7.54667 70.6921 8.26133 70.8414 9.008C71.0121 9.75467 71.0974 10.384 71.0974 10.896C71.0974 12.176 70.8094 13.3173 70.2334 14.32C69.6788 15.3227 68.8254 16.016 67.6734 16.4C68.1428 16.6133 68.5801 16.8373 68.9854 17.072C69.3908 17.3067 69.7321 17.6373 70.0094 18.064C70.3081 18.4693 70.5321 19.0133 70.6814 19.696C70.8521 20.3573 70.9374 21.232 70.9374 22.32V27.6ZM62.6814 14.544C63.9401 14.544 64.8788 14.3093 65.4974 13.84C66.1161 13.3493 66.4254 12.528 66.4254 11.376C66.4254 11.0773 66.3828 10.7573 66.2974 10.416C66.2121 10.0533 66.0414 9.72267 65.7854 9.424C65.5508 9.104 65.2094 8.848 64.7614 8.656C64.3134 8.44267 63.7374 8.336 63.0334 8.336H58.3934V14.544H62.6814ZM77.9639 27.6H72.8119L81.1319 4.272H85.6439L93.8999 27.6H89.6439L88.2039 22.768H79.5639L77.9639 27.6ZM80.8439 20.016H86.8279L83.9159 10.128H83.8519L80.8439 20.016ZM92.7762 4.272H98.5042C99.2722 7.30133 99.9548 10.032 100.552 12.464C100.808 13.488 101.054 14.5013 101.288 15.504C101.544 16.5067 101.768 17.4133 101.96 18.224C102.152 19.0133 102.312 19.6747 102.44 20.208C102.568 20.72 102.632 21.008 102.632 21.072C102.654 21.008 102.76 20.72 102.952 20.208C103.166 19.6747 103.422 19.0133 103.72 18.224C104.019 17.4133 104.35 16.5067 104.712 15.504C105.075 14.5013 105.448 13.488 105.832 12.464C106.707 10.032 107.71 7.30133 108.84 4.272H115.08L105.352 27.6H99.9762L92.7762 4.272ZM121.604 27.6H116.932V4.304H121.604V27.6ZM123.688 4.272H143.912V9.2H136.488V27.6H131.528V9.2H123.688V4.272ZM165.322 4.304L158.122 19.344V27.6H151.914V18.992L144.81 4.304H150.506L155.306 15.12L159.85 4.304H165.322Z" fill="white"/>
</svg>
